<svg width="24" height="24" viewBox="0 0 24 24" fill="none" xmlns="http://www.w3.org/2000/svg">
<g clip-path="url(#clip0_8_16)">
<path fill-rule="evenodd" clip-rule="evenodd" d="M5.52701 9.551C5.52701 9.421 5.52701 9.241 5.45701 9.16C5.30601 8.408 4.91501 7.585 4.67401 6.773C4.43401 5.961 4.67401 4.958 5.67701 4.988L9.52801 5.951C10.963 5.178 12.106 3.453 13.731 3.684C13.8814 3.67932 14.0304 3.71457 14.1627 3.78614C14.2951 3.85772 14.4061 3.96308 14.4846 4.0915C14.563 4.21992 14.606 4.36682 14.6093 4.51726C14.6125 4.6677 14.5758 4.81632 14.503 4.948C13.8834 5.90315 13.3464 6.90947 12.898 7.956L12.838 8.127C13.048 8.187 13.259 8.287 13.36 8.297C15.195 8.638 17.371 8.909 17.532 9.832C17.602 10.223 17.231 10.755 16.399 11.056L15.476 11.326C14.238 11.446 13.016 11.688 11.826 12.049C11.826 12.189 11.826 11.838 11.685 13.051C12.276 13.232 21.443 22.269 21.544 22.359C21.965 22.719 22.296 22.87 22.547 22.77C23.429 22.44 22.547 21.536 22.166 21.125C20.16 18.748 15.004 13.372 13.911 12.4C13.8807 12.3743 13.8557 12.3429 13.8375 12.3076C13.8193 12.2723 13.8082 12.2337 13.8049 12.1941C13.8016 12.1545 13.8062 12.1146 13.8183 12.0768C13.8304 12.0389 13.8498 12.0038 13.8755 11.9735C13.9012 11.9432 13.9326 11.9182 13.9679 11.9C14.0032 11.8818 14.0418 11.8707 14.0814 11.8674C14.121 11.8641 14.1609 11.8687 14.1987 11.8808C14.2366 11.8929 14.2717 11.9123 14.302 11.938C15.305 12.771 23.68 20.423 23.951 21.717C24.311 23.532 22.627 24.817 20.791 23.241C13.229 15.358 15.245 17.414 11.584 13.864C11.334 15.87 11.254 16.873 10.582 17.064C9.90901 17.254 9.45801 16.481 9.16701 16.06C7.76301 14.004 8.00401 13.573 7.89401 12.78C7.64734 12.88 7.39634 12.967 7.14101 13.041C6.19224 13.6106 5.12494 13.9538 4.02201 14.044C3.22001 14.044 2.38701 13.804 2.59801 13.041C2.70801 12.601 3.24001 12.169 5.52701 9.551ZM7.83301 11.557C8.37501 11.387 8.66601 11.827 8.76601 12.389C8.83601 12.791 8.76601 13.292 8.87601 13.593C9.23701 14.538 9.72601 15.429 10.331 16.241C10.621 15.509 10.521 15.981 11.073 12.229C11.086 12.0634 11.1128 11.8992 11.153 11.738C11.424 11.106 15.015 10.654 15.325 10.584L16.138 10.314C16.3657 10.2293 16.5739 10.0993 16.75 9.932C16.66 9.932 16.58 9.812 16.369 9.742C15.3326 9.46083 14.2762 9.25957 13.209 9.14C12.778 9.07 12.076 9.14 11.735 8.789C11.394 8.438 11.965 7.706 11.965 7.485C12.2719 6.56154 12.6967 5.6816 13.229 4.867C12.226 4.807 10.561 7.084 9.48901 7.064C8.3937 6.87659 7.3089 6.63226 6.23901 6.332L5.71701 6.202C5.71701 6.702 6.50901 8.478 6.72001 9.411C6.93001 10.343 5.46601 10.414 3.99201 12.931C5.52701 12.971 7.29201 11.728 7.83301 11.557ZM8.95701 2.62C8.94439 2.70272 8.90255 2.77819 8.83908 2.83272C8.7756 2.88725 8.69469 2.91723 8.61101 2.91723C8.52732 2.91723 8.44641 2.88725 8.38294 2.83272C8.31946 2.77819 8.27762 2.70272 8.26501 2.62C8.26501 2.51 7.61301 0.423996 8.68501 0.0729959C9.44801 -0.197004 9.11701 1.828 8.95701 2.621M16.82 6.522C16.7562 6.58724 16.6691 6.62447 16.5779 6.6255C16.4867 6.62653 16.3988 6.59128 16.3335 6.5275C16.2683 6.46371 16.231 6.37662 16.23 6.28538C16.229 6.19415 16.2642 6.10624 16.328 6.041C16.5068 5.77107 16.7268 5.53082 16.98 5.329C17.4748 4.97557 18.0583 4.7671 18.665 4.727C18.725 4.727 18.936 4.997 18.665 5.319C17.632 6.562 17.271 6.242 16.82 6.522Z" fill="#F69D29"/>
<path fill-rule="evenodd" clip-rule="evenodd" d="M6.95002 14.917C7.02212 14.9516 7.07863 15.012 7.10843 15.0862C7.13823 15.1605 7.13915 15.2431 7.11102 15.318C6.97102 16.562 5.24602 17.154 4.99502 16.903C4.96175 16.8713 4.93525 16.8331 4.91715 16.7908C4.89905 16.7485 4.88972 16.703 4.88972 16.657C4.88972 16.611 4.89905 16.5655 4.91715 16.5232C4.93525 16.4809 4.96175 16.4428 4.99502 16.411C5.44117 15.6895 6.13652 15.1576 6.95002 14.917ZM0.341022 8.30801C0.953022 8.30801 2.34702 7.71601 3.40102 8.77801C3.43489 8.79893 3.46425 8.82638 3.48741 8.85875C3.51056 8.89113 3.52704 8.9278 3.53588 8.96661C3.54472 9.00542 3.54575 9.0456 3.53891 9.08481C3.53206 9.12403 3.51749 9.16149 3.49602 9.19501C3.45322 9.26278 3.3853 9.31083 3.30714 9.32864C3.22899 9.34644 3.14696 9.33255 3.07902 9.29001C2.10745 9.36308 1.13084 9.2511 0.201023 8.96001C0.129859 8.92801 0.071821 8.87256 0.0365982 8.80294C0.00137538 8.73331 -0.00890265 8.65371 0.00747871 8.57742C0.0238601 8.50113 0.0659104 8.43276 0.126612 8.38374C0.187313 8.33471 0.262993 8.30798 0.341022 8.30801Z" fill="#F69D29"/>
</g>
<defs>
<clipPath id="clip0_8_16">
<rect width="24" height="24" fill="white" transform="matrix(-1 0 0 1 24 0)"/>
</clipPath>
</defs>
</svg>
